<?xml version="1.0" encoding="utf-8"?>
<!-- Generator: Adobe Illustrator 22.0.1, SVG Export Plug-In . SVG Version: 6.00 Build 0)  -->
<svg version="1.1" id="Layer_1" xmlns="http://www.w3.org/2000/svg" xmlns:xlink="http://www.w3.org/1999/xlink" x="0px" y="0px"
	 viewBox="0 0 226.8 226.8" style="enable-background:new 0 0 226.8 226.8;" xml:space="preserve">
<style type="text/css">
	.st0{fill:#FFFFFF;}
</style>
<g id="g4701" transform="translate(0,100)">
	<g id="g4699" transform="matrix(0.064,0,0,0.064,0,468)">
		<g id="g4695" transform="matrix(18.0964,0,0,17.213631,246.63518,-8836.1551)">
			<g id="g4623">
				<path id="path4621" class="st0" d="M132.6,62.4c1.3-1,2.6-2.1,4.1-2.9c-0.4,1.8-1.7,3.2-3,4.3c-0.7,0.5-0.4,1.5-0.5,2.3
					c-0.4-0.1-0.7-0.2-1.1-0.3c0.3,4.5,0.8,9.1,1,13.6c0,0.5,0.1,1.1,0.5,1.4c2,1.9,4.1,3.7,5.5,6.1c0.6,0.9,0.9,2,1.2,3.1
					c0.4-1.8,0.3-3.6,0.2-5.4c-0.7-6.9-1.4-13.9-2-20.8c-0.1-0.8-0.2-1.7-0.1-2.6c0.1-0.8,0.8-1.5,1.6-1.4c0.5,0.4,0.7,0.9,0.9,1.5
					c0.6,1.4,1.2,3,1,4.6c-0.4-0.1-0.7-0.3-1.1-0.4c0.5,4.7,1.1,9.4,1.4,14.1c0.2,3.2,0.6,6.4,0,9.5c-0.5,2.9-1.9,5.8-4.3,7.5
					c-2,1.4-4.4,2.2-6.8,2.7c-1,0.2-2,0.3-2.9,0c1-0.6,2.1-1,3.2-1.5c1.5-0.7,3-1.5,4.4-2.4c1.3-0.9,2.7-1.8,3.6-3.2
					c-1.2-3.4-3.2-6.6-6.1-8.7c0.1,3.3,0.2,6.7-0.2,10c-0.1,0.8-0.4,1.5-0.9,2c-0.3-1.4-0.4-2.8-0.5-4.3c-0.3-3.1-0.5-6.2-0.7-9.3
					c0-0.6-0.4-1.1-0.8-1.5c-1.8-1.6-3.5-3.3-5.2-5c0.1,1.9,0.3,3.8,0.5,5.7c0.2,2.5,0.2,5.1,0.5,7.6c0.2,1.8,0.2,3.7-0.5,5.4
					c-0.6,1.6-2.1,3-3.8,3.1c-0.9,0.1-1.8,0-2.7-0.2c-0.9-0.2-1.7-0.9-2.1-1.8c-0.5-1-0.8-2.2-1.2-3.2c-0.8,0.2-1.6,0.4-2.2,1
					c-1.2,1.2-1.6,3.1-2.2,4.6c-0.3,0.9-0.7,2-1.6,2.5c-0.9,0.5-2,0.3-2.9-0.2c-1.3-0.8-2.2-2.2-2.5-3.7c-0.4-1.2,0.2-2.5-0.5-3.6
					c-0.5-1-0.2-2.2,0-3.2c0.5-1.8,1.6-3.4,2.9-4.8c-1.7-1.6-3.5-3.2-5.2-4.7c0.2,4.4,0.5,8.7-0.1,13.1c-0.1,0.9-0.4,1.7-1,2.3
					c-0.2-0.8-0.3-1.7-0.4-2.5c-0.4-4.8-0.8-9.6-1.1-14.4c0-0.5-0.1-1.2-0.5-1.5c-1.8-1.8-3.5-3.6-5-5.6c-0.9-1.2-1.8-2.5-2.3-3.9
					c-0.2-0.6-0.3-1.5,0.2-1.9c0.6,0.1,1.2,0.4,1.8,0.7c1,0.6,1.9,1.4,2.8,2.3c0.4,0.4,0.5,0.9,0.7,1.4c-0.5,0-1,0-1.5,0
					c1,1.5,2.2,3,3.6,4.2c-0.1-4.1-0.5-8.2-0.7-12.2c0-0.5,0-1.2,0.4-1.6c0.3-0.4,0.8-0.5,1.3-0.7c0.8,1.3,1.5,2.8,1.8,4.3
					c0.2,0.6,0.1,1.2,0.1,1.9c-0.4-0.1-0.7-0.2-1.1-0.3c0.2,3.3,0.6,6.6,0.8,9.9c0,0.5,0.1,0.9,0.2,1.4c0.2,0.3,0.5,0.5,0.7,0.8
					c2.2,1.9,4.3,3.8,6.5,5.7c1.3-1.2,2.6-2.4,3.9-3.5c0.3-0.3,0.6-0.5,0.8-0.8c0.2-0.3,0.2-0.7,0.2-1c-0.4-4-0.7-7.9-1.1-11.9
					c-0.1-1.5-0.3-2.9-0.3-4.3c0-0.8,0.6-1.7,1.4-1.7c0.4,0,0.5,0.4,0.7,0.6c0.6,1.1,1.1,2.3,1.3,3.6c0.2,0.6,0.1,1.2,0,1.9
					c-0.3-0.2-0.7-0.3-1-0.5c0.5,3.7,0.8,7.5,1.2,11.2c0.9-0.7,1.8-1.6,2.7-2.4c1-0.9,2-1.7,2.9-2.7c-1.1-1.3-2.3-2.5-3.5-3.7
					c-0.7-0.8-1.6-1.5-1.9-2.7c-0.2-0.8-0.1-1.6,0.1-2.4c1.4,0.2,2.5,1.1,3.6,1.9c0.8,0.6,1.4,1.3,2.1,2c-0.1-1.6-0.2-3.2-0.4-4.7
					c0-0.6-0.1-1.3,0.3-1.8c0.3-0.4,0.8-0.5,1.3-0.8c0.9,1.2,1.4,2.7,1.8,4.1c0.2,0.7,0.2,1.3,0.2,2c-0.4-0.1-0.8-0.2-1.1-0.3
					c0.1,1.2,0.2,2.4,0.4,3.6c1.4-1.1,2.7-2.4,4.2-3.5c0.5-0.5,1.4-0.8,1.4-1.7c0-0.9-0.2-1.8,0-2.8c0.1-0.8,0.8-1.4,1.6-1.4
					C132,60.7,132.2,61.6,132.6,62.4L132.6,62.4z M125.2,71.1c-0.2,0.3-0.7,0.5-0.7,1c0.2,0.4,0.5,0.7,0.8,1
					c1.8,1.7,3.4,3.4,5.3,4.9c-0.1-1.8-0.2-3.5-0.3-5.3c-0.2-1.9-0.2-3.8-0.4-5.6C128.3,68.3,126.8,69.8,125.2,71.1L125.2,71.1z
					 M120.8,67.8c0.4,0.5,0.8,0.9,1.2,1.4c0-0.5,0-0.9,0-1.4C121.5,67.8,121.2,67.8,120.8,67.8L120.8,67.8z M116.5,78.9
					c-0.3,0.3-0.7,0.6-0.6,1c0,2.3,0.2,4.7-0.3,6.9c-0.1,0.6-0.5,1-0.9,1.3c-0.5-2.2-0.5-4.5-0.9-6.7c-1.3,1.1-2.5,2.3-3.8,3.5
					c0.7,0.8,1.4,1.7,1.6,2.8c0.4,1.5-0.1,3.3-1.3,4.4c-1.5,1.3-3.5,1.5-5.3,1.8c0.3,1.3,0.5,2.6,1.2,3.7c0.5,0.6,1.2,1.2,2,1
					c0.8-0.2,1.4-1.1,1.7-1.9c0.6-1.6,1.3-3.2,2.2-4.6c0.7-1.2,1.9-2.2,3.3-2.2c0.5,0,1.1-0.1,1.3,0.4c0.6,1.1,0.8,2.3,1.6,3.3
					c1.3,1.8,4,1.8,5.5,0.3c0.5-0.5,0.5-1.3,0.5-1.9c-0.7-6-1.2-12.1-1.8-18.2C120.4,75.4,118.5,77.1,116.5,78.9z M105.8,89.2
					c-0.3,0.5-0.5,1-0.7,1.6c1.4,0.2,2.8-0.2,3.9-0.9c0.4-0.2,0.8-0.6,0.7-1.2c-0.1-1-0.9-1.8-1.6-2.4
					C107.4,87.2,106.5,88.2,105.8,89.2L105.8,89.2z"/>
			</g>
			<path id="path4625" class="st0" d="M48.9,59.8c0.4-0.2,0.7,0.2,0.9,0.5c0.7,0.9,1.5,1.9,1.9,3c-0.4,0.1-0.8,0.1-1.1,0.2
				c0.1,1.8,1.5,3.1,2,4.8c0.3,1.1,0.3,2.2,0.1,3.3c-0.3,1.5-1.5,2.7-2.9,3c-1.7,0.3-3.5-0.1-4.8-1.4c-0.8-0.8-1.1-2.1-1.5-3.2
				c-0.4,1.5-1,2.9-2,4.1c-0.6,0.7-1.3,1.2-2.1,1.6c0.2,4.1,0.6,8.1,0.3,12.2c-0.1,1.2-0.2,2.5-1.2,3.3c-0.4-1.6-0.4-3.3-0.6-4.9
				c-0.3-3.4-0.6-6.7-0.9-10.1c-0.9-0.2-2-0.5-2.7-1.2c-1.2-1.2-1.6-2.9-1.5-4.6c0-1.3,0.4-2.5,0.7-3.8c-0.5,0.5-0.8,1.1-1,1.7
				c-0.6,2-1.1,4.2-1.9,6.1c-0.3,0.8-1,1.4-1.8,1.6c-1,0.2-2.1,0.2-2.9-0.6c-0.8-0.8-1-2.1-1.1-3.3c-0.1-1.2-0.2-2.5,0.4-3.5
				c0.3-0.7,0.9-1,1.5-1.4c-0.4,0.6-0.8,1.3-0.9,2c-0.1,1,0.1,2.1,0.2,3.1c0.1,0.6,0.2,1.3,0.7,1.7c0.7,0.7,1.9,0.6,2.5-0.1
				c0.4-0.4,0.5-1,0.7-1.5c0.6-1.9,1.1-3.9,1.8-5.8c0.7-1.6,1.8-3.1,3.5-3.5c-0.2,2.2-1.1,4.2-1.2,6.3c0,1,0.1,2,0.7,2.8
				c0.5,0.6,1.2,0.8,1.9,1.1c-0.2-2.9-0.5-5.9-0.6-8.9c-0.1-1.1-0.2-2.2-0.1-3.3c0.2-0.8,0.9-1,1.5-1.3c1.2,1.8,2,3.9,2,6.1
				c-0.4-0.1-0.8-0.2-1.2-0.3c0.2,2.5,0.5,5.1,0.8,7.6c1-0.3,1.9-1,2.5-1.9c1.2-1.8,1.4-4.1,0.8-6.2c-0.2-0.9-0.6-1.7-0.8-2.6
				c-0.2-0.8,0.4-1.7,1.1-2c0.3-0.2,0.5,0.3,0.6,0.5c0.5,1,0.6,2.2,0.8,3.3c0.3,1.5,0,3,0.5,4.5c0.4,1.2,1.2,2.3,2.3,3
				c0.9,0.5,1.9,0.6,2.9,0.5c0.5-0.1,0.9-0.5,1-1c0.2-1-0.1-2-0.5-2.8c-0.9-2-2-3.9-2.5-6.1C47.9,61.4,48.1,60.3,48.9,59.8
				L48.9,59.8z"/>
			<path id="path4627" class="st0" d="M90.5,62.1c0.6-1,1.5-1.8,2.5-2.3c-0.3,0.8-0.7,1.4-1.1,2.1c-0.3,0.5-0.3,1.1-0.3,1.6
				c0.7,0,1.4-0.2,2.1-0.3c-0.2,0.6-0.4,1.2-0.9,1.5c-0.6,0.4-1.4,0.7-2,0.2C90.1,64.2,90.1,63,90.5,62.1L90.5,62.1z"/>
			<g id="g4631">
				<path id="path4629" class="st0" d="M53,60.8c0.3-0.5,0.9-0.7,1.3-0.9c0.9,1.3,1.5,2.8,1.9,4.4c0.2,0.6,0.1,1.2,0,1.8
					c-0.3-0.1-0.7-0.2-1-0.4c0.4,2.9,0.9,5.8,1.2,8.8c1.6-0.8,3.1-1.8,4.8-2.5c0.5-0.2,1.1-0.4,1.6-0.4c-0.2,0.5-0.5,1-0.9,1.2
					c-1.8,0.9-3.5,1.8-5.3,2.8c0.2,1.5,0.3,2.9,0.5,4.4c0.8-1.1,1.5-2.4,2.8-2.7c0.1,0.8-0.2,1.7,0.4,2.4c0.8,0.7,2,0.3,2.8-0.4
					c-0.1-1.2,0.2-2.3,0.5-3.4c0.3,0.2,0.8,0.2,0.9,0.6c0.4,1.1,0.3,2.2,0,3.3c-0.3,1.2-1.2,2.1-2.2,2.7c-0.6,0.3-1.4,0.5-2.1,0.2
					c-0.7-0.3-1.2-1-1.7-1.7c-0.4,1.1-1.1,2.1-1.2,3.3c-0.1,2.6-1.1,5.1-2.6,7.2c-2.6,3.5-6.5,5.7-10.5,6.9
					c-2.3,0.7-4.7,1.3-7.1,1.2c-1.3,0-2.6-0.3-3.8-1.1c-0.5-0.3-0.9-0.8-1.4-1.1c-0.6-0.1-1.2,0.1-1.9,0.1c-1.5,0.1-3,0.1-4.5-0.2
					c1.8-0.6,3.7-1.1,5.5-1.8c-0.5-3.4,0.2-7,1.8-9.9c0.5-0.8,1-1.5,1.6-2.1c-0.5,1.1-1.2,2.2-1.4,3.4c-0.6,2.5-0.6,5.3,0.1,7.8
					c1.2-0.4,2.5-1,3.6-1.5c2.8-1.3,5.5-2.6,8-4.4c0.9-0.7,1.9-1.4,2.5-2.5c0.3-0.5,0.2-1.1,0.2-1.7c-1.3,0.3-2.6,0.9-3.9,0.9
					c-0.8-0.1-1.8-0.2-2.4-0.9c-0.6-0.7-0.6-1.7-0.5-2.6c0.2-1.2,0.7-2.3,1.5-3.1c1-0.9,2.5-0.8,3.6-0.3c1.1,0.5,1.8,1.7,2.3,2.8
					c1.7-0.7,2.8-2.2,4.5-3c0.1,0.9,0,2,0.6,2.7c0.4,0.5,1.1,0.5,1.6,0.5c-0.1-1.5-0.3-2.9-0.5-4.3c-0.6-4.8-1.2-9.5-1.6-14.3
					C52.7,62.1,52.6,61.4,53,60.8L53,60.8z M42.6,81.5c-0.2,0.3,0.2,0.5,0.5,0.7c0.9,0.3,1.9,0.1,2.8-0.1c-0.5-0.5-1.1-1.2-1.8-1.2
					C43.5,80.9,42.8,80.9,42.6,81.5L42.6,81.5z M49.2,83.5c0.1,1,0.1,1.9-0.2,2.8c-0.5,1.5-1.6,2.8-2.8,3.8
					c-2.2,1.9-4.8,3.2-7.3,4.5c-1.1,0.7-2.3,1.2-3.5,1.8c1.5,0.1,3.1-0.2,4.6-0.3c2.3-0.2,4.6-0.8,6.7-1.8c2.2-1,4.4-2.2,6.2-4
					c1.1-1.1,1.9-2.5,2.3-4c0.2-0.8,0.2-1.5,0.2-2.3c-0.9,0-1.9,0-2.7-0.5c-0.7-0.4-1-1.2-1.4-1.8C50.6,82.4,49.9,83,49.2,83.5
					L49.2,83.5z"/>
			</g>
			<path id="path4633" class="st0" d="M73.8,60.7c0.3-0.4,0.9-0.3,1.3-0.1c0.9,0.6,1.4,1.7,1.3,2.8c0,0.5-0.2,1-0.4,1.4
				c-0.1-0.7-0.1-1.4-0.4-2.1c-0.5-0.7-1.3-0.8-1.8-1.3C73.7,61.3,73.6,60.9,73.8,60.7z"/>
			<path id="path4635" class="st0" d="M86.3,61.1c0.1-0.4,0.5-0.9,0.9-0.6c1.2,0.6,2,1.8,2.6,3c-0.4,0-0.8,0-1.2-0.1
				c0.2,0.8,0.4,1.7,0.8,2.5c0.5,1.2,1.1,2.2,1.3,3.5c0.2,1.4,0,3-1,4c-1.8,2.1-5.3,1.7-6.8-0.5c-0.6-0.8-0.9-1.7-1.2-2.6
				c-0.5,2-1.5,3.9-3.2,5c-1.8,1.1-4.1,1-5.8-0.2c-1-0.7-1.7-1.9-1.7-3.2c-0.1-1.9,0.6-3.6,0.8-5.5c-0.4,0.5-0.8,1-1,1.6
				c-0.7,2-1,4.2-2.1,6.1c-0.5,0.9-1.3,1.7-2.3,1.8c-1,0.1-2.1-0.3-2.7-1.2c-0.5-0.8-0.6-1.9-0.6-2.9c0-1.5,0.4-3.1,1-4.4
				c0,1.9-0.5,4,0.4,5.8c0.5,1,1.7,1.6,2.6,1c0.8-0.5,1.2-1.6,1.5-2.5c0.6-2,1.3-4,2.2-5.9c0.4-0.8,0.8-1.5,1.5-2.1
				c0.3-0.3,0.8-0.3,1.2-0.4c0.1,1.7-0.8,3.2-1.1,4.8c-0.3,1.4-0.4,3.1,0.6,4.3c1.1,1.2,2.9,1.5,4.4,1.1c2.1-0.7,3.6-2.9,3.7-5.2
				c0.1-1.4,0.1-2.8-0.6-4.1c-0.3-0.6-0.9-1.3-0.6-2.1c0.2-0.8,0.7-1.4,1.3-1.8c0.5,0.8,0.8,1.6,0.9,2.5c0.2,2.1,0.3,4.2,1,6.2
				c0.4,1.2,1.1,2.3,2.2,2.9c1,0.5,2.3,0.6,3.3,0.1c0.6-0.3,0.8-1.2,0.6-1.8c-0.4-2.2-1.8-3.9-2.5-6C86.3,63.2,86.1,62.1,86.3,61.1
				L86.3,61.1z"/>
			<path id="path4637" class="st0" d="M106.6,60.6c0.6-0.3,1.5-0.1,1.8,0.6c0.1,0.3-0.1,0.6-0.3,0.8c-0.5-0.1-0.8-0.3-1.2-0.5
				c-0.5,1-0.8,2.2-1.1,3.3c-0.2-0.5-0.4-1.1-0.7-1.6c-0.4-0.6-1.1-0.9-1.6-1.5c-0.2-0.5,0.4-1,0.8-0.9c0.7,0.2,1.1,0.8,1.5,1.4
				C106,61.7,106.1,61,106.6,60.6L106.6,60.6z"/>
			<path id="path4639" class="st0" d="M25.1,63.1c0.5-1.2,1.5-2,2.6-2.5c-0.3,0.8-0.7,1.4-1.1,2.1c-0.3,0.5-0.3,1.1-0.3,1.6
				c0.7-0.1,1.4-0.2,2.1-0.5c-0.2,0.6-0.4,1.2-0.9,1.6c-0.5,0.4-1.4,0.7-1.9,0.2C24.9,65.1,24.7,64,25.1,63.1z"/>
			<g id="g4643">
				<path id="path4641" class="st0" d="M63.9,61.6c0.2-1,1.6-1,2.1-0.2c0.3,0.5,0.5,1.1,0.8,1.7c0.3,0.5,0.6,1.1,0.4,1.8
					c-0.3,1-1,1.8-1.1,2.8c0.3-0.2,0.7-0.3,1-0.5c-0.1,0.5,0,1.3-0.5,1.6c-0.7,0.3-1.5-0.3-1.4-1.1c0.1-1.4,1.4-2.4,1-3.9
					c-1.3,1.8-3,3.4-5.2,3.7c0.9-0.8,2-1.3,2.8-2.2c0.5-0.5,0.9-1.2,1.3-1.9C64.5,62.8,63.7,62.4,63.9,61.6L63.9,61.6z M64.7,61.5
					c0.2,0.3,0.5,0.6,0.8,0.8C65.4,61.9,65.1,61.6,64.7,61.5z"/>
			</g>
			<path id="path4645" class="st0" d="M57.1,62.2c0.5-0.1,1-0.3,1.4,0.1c1.1,1.1,1.6,2.8,1.2,4.3c-0.2-0.6-0.4-1.2-0.7-1.7
				C58.6,63.9,57.6,63.3,57.1,62.2L57.1,62.2z"/>
			<path id="path4647" class="st0" d="M47.4,62.9c0.5,0.5,0.7,1.2,0.6,1.8c-0.7,0.1-1.5,0.3-2.2,0.5c-0.4,0.1-0.8-0.2-0.9-0.6
				c0-0.5,0.1-0.9,0.2-1.3c0.2,0.5,0.3,0.9,0.5,1.4c0.2-0.1,0.4-0.2,0.6-0.2c0-0.4,0-0.8,0-1.2c0.2,0,0.3,0,0.4,0
				c0.1,0.4,0.1,0.8,0.2,1.1c0.2,0,0.5-0.1,0.7-0.1C47.4,63.8,47.4,63.3,47.4,62.9L47.4,62.9z"/>
			<path id="path4649" class="st0" d="M108.9,63.9c0.6-0.2,1.2-0.2,1.8-0.2c-0.3,0.4-0.6,0.7-1.1,0.9c-2.1,0.9-4.2,1.5-6.2,2.6
				c0.2,0.4,0.4,0.8,0.5,1.2c-0.5-0.1-1.1-0.1-1.4-0.5c-0.3-0.3-0.4-1,0-1.3c0.3-0.3,0.7-0.4,1.1-0.6
				C105.4,65.2,107.1,64.5,108.9,63.9L108.9,63.9z"/>
			<path id="path4651" class="st0" d="M77.3,65.4c0.2-0.2,0.5-0.4,0.8-0.5c0,0.8,0.2,1.5,0.6,2.3c0.3,0.7,0.1,1.8-0.8,1.9
				c-0.7,0.2-1.3-0.2-1.8-0.6c-0.4,0.4-0.8,0.8-1.4,0.8c-1.1-0.1-1.6-1.4-1.4-2.3c0.1-0.6,0.6-1,1-1.4c-0.1,0.7-0.3,1.3-0.2,2
				c0.1,0.5,0.6,0.5,1,0.6c0.1-0.7,0.2-1.5,0.3-2.2c0.1-0.4,0.5-0.4,0.8-0.6c0.1,0.6,0,1.3,0.2,1.9c0.2,0.5,0.7,0.6,1,0.8
				C77.6,67.1,77.3,66.3,77.3,65.4L77.3,65.4z"/>
			<path id="path4653" class="st0" d="M45.8,66.6c0.5,0,1-0.1,1.4,0.3c1,1.1,1.5,2.7,1.2,4.2c-0.4-1-0.7-2.1-1.5-2.8
				C46.4,67.8,45.9,67.3,45.8,66.6z"/>
			<path id="path4655" class="st0" d="M108.5,70.4c0.2-0.3,0.5-0.5,0.8-0.7c0,0.8,0.2,1.5,0.5,2.1s0.3,1.7-0.5,2
				c-0.7,0.3-1.4-0.1-2-0.5c-0.5,0.4-1,0.8-1.6,0.6c-0.9-0.2-1.3-1.4-1.2-2.3c0.1-0.7,0.6-1.1,1-1.5c-0.1,0.7-0.4,1.4-0.2,2.1
				c0.2,0.5,0.7,0.4,1,0.5c0.1-0.8,0.1-1.6,0.4-2.3c0.2-0.2,0.5-0.3,0.8-0.4c0,0.7-0.1,1.5,0.2,2.1c0.2,0.4,0.7,0.4,1,0.5
				C108.8,71.9,108.6,71.2,108.5,70.4L108.5,70.4z"/>
			<path id="path4657" class="st0" d="M133.7,71.5c-0.2-0.5,0.2-1,0.7-1c0.8,0,1.3,0.7,1.7,1.3c0.6,1.3,0.9,2.9,0.4,4.3
				c-0.3-1.2-0.2-2.8-1.3-3.6C134.7,72.2,134.1,72,133.7,71.5L133.7,71.5z"/>
			<path id="path4659" class="st0" d="M91.9,74.2c0.3-0.4,0.9-0.5,1.4-0.4c0.6,0.6,0.5,1.7,0,2.3c-0.9,1.2-2.3,1.8-3.8,1.8
				c0.9-0.5,1.9-0.8,2.7-1.5c0.4-0.3,0.3-0.8,0.4-1.2c-0.4,0.1-0.8,0.2-1.2,0.2C91.4,75,91.6,74.6,91.9,74.2L91.9,74.2z"/>
			<path id="path4661" class="st0" d="M112.2,75.2c0.3-0.1,0.6-0.2,0.8,0.1c-0.2,0.7-0.9,1-1.5,1.3c-2.2,1.1-4.3,2.2-6.5,3.4
				c-0.1-0.2-0.2-0.4-0.3-0.6c1.2-0.9,2.5-1.6,3.8-2.4C109.8,76.3,111,75.6,112.2,75.2L112.2,75.2z"/>
			<g id="g4665">
				<path id="path4663" class="st0" d="M71.2,77c0.1-0.5,0.4-0.8,0.6-1.1c1.7,1.9,3.1,4.1,3.8,6.6c0.7,2.4,0.9,4.9,1.4,7.4
					c0.2,1.2,0.5,2.5,1.2,3.5c0.5,0.7,1.3,1.1,2,1.5c0.2-0.8,0.3-1.6,1-2.1c2.1-1.5,4.6-2.4,7-3.2c-2-0.1-4,0-5.9,0
					c-1.6,0-3.2,0.1-4.8-0.2c0.1-0.6,0.1-1.3,0.4-1.9c0.7-1.3,2-2,3.2-2.7c1.8-1,3.7-1.9,5.7-2.5c-0.5-0.6-1.3-1.2-1.1-2.2
					c0.4-1.1,1.3-2.2,2.4-2.2c1.3,0,2.5,0.5,3.6,1.2c0.7,0.5,1.5,0.9,1.7,1.8c0,0.6-0.3,1.2-0.7,1.6c-0.7,0.9-1.9,0.8-3,1
					c-0.1,0.7-0.2,1.6-0.8,1.9c-0.2-0.6-0.4-1.1-0.7-1.7c-2.5,0.5-4.8,1.8-6.7,3.5c5.6,0,11.1-0.1,16.7-0.1c0.4,0,0.7,0.1,1.1,0.1
					c-0.2,1.5-1.7,2.3-3,2.6c-2.6,0.6-5.3,1.2-7.9,1.7c-2,0.4-4,0.9-5.8,1.8c-0.7,0.3-1.2,0.9-1.7,1.5c1.3,0.5,2.7,0.8,4,1.1
					c0.5,0.1,1.1,0.2,1.2,0.8c0.2,0.8,0.2,1.8-0.5,2.3c-0.9,0.2-1.8,0-2.7-0.2c-2.4-0.4-4.8-1.7-6.2-3.9c-1.1-1.6-1.4-3.5-1.6-5.4
					c-0.7,1-1.4,2.1-2.3,2.9c-2.4,2.3-5.2,4-8.2,5.4c-1,0.5-2.3,0.6-3.4,0c-0.7-0.5-1-1.4-1.3-2.2c-2.8,1.5-5.6,2.9-8.6,3.5
					c-1.9,0.4-3.8,0.6-5.7,0.6c1-0.5,2-0.9,3-1.3c3.3-1.5,6.6-3.1,9.8-4.8c0.4-0.2,0.9-0.5,1.2-0.8c0.3-0.9,0.3-1.8,0.8-2.7
					c0.5-1,1.3-1.8,2.2-2.4c-0.6,1.3-1.2,2.7-1.4,4.2c1.9-1.2,3.8-2.6,5.4-4.3c0.4-0.5,1-1.1,0.8-1.8c-0.3-1-0.8-1.9-1.2-2.9
					c-0.5-1.5-1.2-3-1.1-4.6c0-0.5,0.4-0.9,0.6-1.3c1.3,0.9,2.2,2.4,2.9,3.8c-0.3,0.1-0.6,0.1-0.8,0.2c0.5,1.5,1.4,2.8,1.6,4.4
					c0.2,1.2-0.1,2.5-0.9,3.5c-2.1,2.3-4.6,4.1-7,6c0.4,0.2,0.9,0.6,1.4,0.5c1,0,2-0.4,2.9-0.8c3.3-1.5,6.1-4.1,8.9-6.5
					c-0.7-2.8-1.9-5.5-3.2-8.1C71.3,79.2,71,78.1,71.2,77L71.2,77z M87.3,80.7c0.3,0.5,0.8,0.9,1.3,1.1c0.8,0.2,1.6-0.3,2.2-0.9
					c-0.8-0.6-1.6-1.1-2.6-1.1C87.7,79.8,87.3,80.2,87.3,80.7L87.3,80.7z"/>
			</g>
			<g id="g4669">
				<path id="path4667" class="st0" d="M29.5,77c0-0.4,0.3-0.8,0.7-0.7c1-0.1,1.8,0.8,2.4,1.5c0.3,0.4,0.6,0.8,0.4,1.4
					c-0.1,0.6-0.8,0.5-1.2,0.7c-0.9,0.1-1.3,1.1-2,1.5c-1.4,1-3.1,1.8-4.8,1.5c0.4-0.6,1.1-0.9,1.8-1.1c1.2-0.4,2.2-1.4,3.2-2.3
					C29.6,78.6,29.3,77.8,29.5,77L29.5,77z M30,77.1c0.1,0.5,0.2,1.1,0.5,1.5c0.2-0.4,0.4-0.9,0.5-1.3C30.7,77.2,30.4,77.1,30,77.1z
					 M31.4,79.1c0.3,0,0.7-0.1,1-0.1c-0.1-0.5-0.2-0.9-0.3-1.3C31.6,77.9,31.6,78.5,31.4,79.1L31.4,79.1z"/>
			</g>
			<path id="path4671" class="st0" d="M80.9,77.2c0.2-0.2,0.5-0.4,0.7-0.5c0,1.1,0.7,1.9,0.8,2.9c0.1,1.1-1.2,1.6-2,1.1
				c-0.2-0.2-0.5-0.4-0.7-0.6c-0.4,0.4-0.9,1-1.5,0.8c-1-0.2-1.5-1.4-1.3-2.3c0.1-0.7,0.6-1.1,1.1-1.5c-0.1,0.6-0.3,1.2-0.2,1.9
				c0.1,0.5,0.6,0.6,0.9,0.8c0.2-0.7,0.3-1.5,0.4-2.3c0.1-0.4,0.5-0.5,0.8-0.7c0,0.6,0,1.3,0.2,1.9c0.2,0.4,0.6,0.6,0.9,0.9
				C81.5,78.8,81,78,80.9,77.2L80.9,77.2z"/>
			<path id="path4673" class="st0" d="M32.6,81.1c0.5-0.2,1.1-0.5,1.6-0.6c0.5,0,0.8,0.8,0.4,1.2c-0.6,0.5-1.4,0.7-2.1,1.1
				c-1.7,0.8-3.4,1.7-5.1,2.6c-0.4,0.2-0.8,0.2-1.2,0.1c0.2-0.5,0.6-1,1.1-1.3C29,83.1,30.8,82,32.6,81.1z"/>
			<path id="path4675" class="st0" d="M96.3,82c0.1-0.6,0.8-0.7,1.3-0.9c0.1,0.9,0.2,1.8,0.7,2.5c-0.3,0-0.5,0.1-0.8,0.1
				c-0.4,0.6-0.8,1.2-1.4,1.5c-1,0.5-2.1,0.5-3.2,0.5c1.2-0.3,2.6-0.4,3.3-1.5C96.8,83.6,96.2,82.8,96.3,82L96.3,82z"/>
			<g id="g4679">
				<path id="path4677" class="st0" d="M119.2,82.9c0.2-0.5,0.7-0.5,1.1-0.4c0.8,0.2,1.5,0.9,2,1.5c0.4,0.4,0.5,1.1,0.2,1.6
					c-0.5,0.5-1.4,0.2-1.9,0.8c-1.5,1.8-3.7,2.9-5.9,2.6c0.4-0.6,1.1-0.9,1.8-1.1c1.2-0.4,2.2-1.4,3.1-2.3
					C119.3,84.7,118.9,83.8,119.2,82.9L119.2,82.9z M119.8,83.3c0.1,0.5,0.2,1.1,0.4,1.6c0.2-0.4,0.4-0.8,0.5-1.3
					C120.4,83.5,120,83.4,119.8,83.3z M121.5,83.9c-0.2,0.4-0.3,0.9-0.4,1.3c0.3,0,0.7-0.1,1-0.1c-0.1-0.4-0.2-0.8-0.3-1.2
					C121.7,83.9,121.6,83.9,121.5,83.9z"/>
			</g>
			<path id="path4681" class="st0" d="M61.8,83.8c0.6-0.6,1.6-0.3,2,0.4c0.2,0.4-0.2,0.7-0.4,1c-0.3-0.2-0.6-0.4-0.9-0.5
				c-0.3-0.1-0.4,0.3-0.5,0.5c-0.4,0.9-0.5,1.9-0.8,2.8c-0.2-0.6-0.4-1.2-0.7-1.7c-0.4-0.5-1-0.8-1.4-1.3c-0.4-0.4,0-1.2,0.5-1.1
				c0.7,0.1,1.1,0.8,1.6,1.2C61.4,84.8,61.5,84.2,61.8,83.8L61.8,83.8z"/>
			<path id="path4683" class="st0" d="M25.4,89.1c0.6-1,1.5-1.8,2.5-2.3c-0.3,0.8-0.7,1.4-1.1,2.1c-0.3,0.5-0.3,1.1-0.3,1.6
				c0.7,0,1.4-0.2,2.1-0.3c-0.2,0.6-0.4,1.2-0.9,1.5c-0.6,0.4-1.4,0.7-2,0.2C25,91.1,24.9,90,25.4,89.1L25.4,89.1z"/>
			<path id="path4685" class="st0" d="M73.8,93.8c0.5-0.1,1.1-0.3,1.6,0.1c0.5,0.3,0.6,1.1,0.2,1.5c-0.6,0.4-1.5,0.2-2,0.7
				c0.1,0.8,0.7,1.4,0.8,2.2c0,0.5-0.3,0.9-0.5,1.3c-0.2-0.8-0.3-1.6-0.7-2.2c-0.2-0.5-0.6-1-0.5-1.5c0.1-0.6,0.8-0.9,1.2-1.2
				C73.8,94.3,73.8,94,73.8,93.8z"/>
			<path id="path4687" class="st0" d="M97,94.7c0.2-0.6,0.8-0.9,1.3-1.3c-0.2,0.5-0.6,1-0.6,1.6c0.2,0.5,0.6,0.8,0.8,1.3
				c0.1,0.8-1,0.9-1.4,0.4C96.7,96.2,96.8,95.4,97,94.7L97,94.7z"/>
			<path id="path4689" class="st0" d="M91.4,93.8c0.8-0.3,1.8,0,2.5,0.5c-0.5,1.2-1.8,1.5-2.8,2.2c0,0.1,0.1,0.4,0.1,0.5
				c0.7,0,1.4,0.1,1.9-0.2c0.8-0.4,1.5-0.8,2.4-1c-0.7,0.6-1.3,1.2-2,1.8c-0.8,0.7-1.9,0.7-2.8,0.4c-0.5-0.2-1-0.6-0.9-1.2
				c0.2-0.8,1-1.2,1.5-1.6c-0.4,0-0.8-0.1-1.2-0.1C90.5,94.6,90.8,94,91.4,93.8z"/>
			<path id="path4691" class="st0" d="M113.4,96c-0.3-0.4,0-1,0.4-1c0.8-0.2,1.5,0.5,1.9,1.2c0.5,1,0.5,2.2,0.1,3.2
				c-0.2-0.7-0.2-1.4-0.5-2.1C114.8,96.7,113.9,96.6,113.4,96L113.4,96z"/>
			<path id="path4693" class="st0" d="M127.1,96.5c1.1-0.4,2.2-1,3.5-0.8c-0.3,0.5-0.6,0.9-1.1,1.1c-1.9,0.7-3.8,1.4-5.6,2.2
				c-0.6,0.3-1.2,0.5-1.8,0.6c-0.1-0.2-0.2-0.4-0.2-0.5C123.5,97.9,125.3,97.2,127.1,96.5L127.1,96.5z"/>
		</g>
		<path id="path4697" class="st0" d="M2480.8-6505.6h-168.9v-16c7.6-6.6,18-15.5,18-20.7c0-9-21.3-27.3-26.2-27.3
			c-5.4,0-26.2,18.8-26.2,27.3c0,5.7,9.3,13.7,16.9,20.3l0.5,0.5v16.5H962.5c47.4,47.1,117.7,46.6,258.9,48.1
			c125.9,1.9,125.3,1.9,1073.1,0v17c-7.6,6.6-16.9,15.5-16.9,20.7c0,9,20.2,27.3,26.2,27.3c3.8,0,16.3-10.4,22.9-19.3h58.3
			c3.8,6.6,12.5,10.4,22.9,10.4s19.1-4.2,22.9-10.4h69.8c8.7,9.9,20.7,10.4,27.8,10.4c26.7-0.9,32.7-14.6,32.7-61.7
			C2560.3-6502.3,2533.6-6506.6,2480.8-6505.6L2480.8-6505.6z M2492.8-6426h-62.1c-3.8-6.6-12.5-10.8-22.9-10.8
			c-10.4,0-19.1,4.2-22.9,10.8h-57.2c-3.3-4.7-9.8-10.8-15.3-14.6v-17h178.2h2.7C2490-6445.3,2489.5-6434.5,2492.8-6426z"/>
	</g>
</g>
</svg>
