<?xml version="1.0" encoding="utf-8"?>
<!-- Generator: Adobe Illustrator 22.0.1, SVG Export Plug-In . SVG Version: 6.00 Build 0)  -->
<svg version="1.1" id="Layer_1" xmlns="http://www.w3.org/2000/svg" xmlns:xlink="http://www.w3.org/1999/xlink" x="0px" y="0px"
	 viewBox="0 0 226.8 226.8" style="enable-background:new 0 0 226.8 226.8;" xml:space="preserve">
<style type="text/css">
	.st0{fill:#FFFFFF;}
</style>
<g>
	<path class="st0" d="M156.4,80.7c-0.2-3.9-1.4-6.5-3.7-7.8c-4.6-2.5-11.8,1.1-14.7,2.7c-3.9,2.5-8.2,3.7-12.9,3.7
		c-1.8-3.1-3.3-9.3-3.1-14.8c0.3-7.1-1-10-2.2-11.2c-1.4-1.4-5.7-2.6-8.6-2.8c-0.7,0-1.1,0.1-1.4,0.5c-0.2,0.2-0.2,0.4-0.3,0.6
		c-2.1-0.5-5.4-1-7,0c-1.1,0.7-1.4,3-1.3,4c0.1,0.5,0.2,0.9,0.5,1c0.1,0.1,0.4,0.1,0.7-0.1c0.7-0.5,1.3-0.7,2-0.6
		c0.9,0.1,1.9,0.9,2.9,2.3c1,1.4,1.1,5.9-0.7,11.7c-1.1,3.5-3.3,7.1-4.8,9.3c-4.7,0-9-1.3-12.8-3.7c-2.9-1.7-10.2-5.3-14.7-2.7
		c-2.3,1.3-3.6,3.9-3.7,7.8L67.2,157c0,0.2,0.1,0.3,0.2,0.4c0.1,0,0.1,0,0.2,0c0.1,0,0.2,0,0.3-0.1l23.8-21.6l-4.9,17.4
		c-1.1-0.3-2.1-0.6-2.8-0.8c-0.8-0.2-1.6,0.1-2.2,0.5c-1.2,0-2.2,0.5-2.9,1.5c-0.9,1.2-1.1,2.8-0.6,4.1c-0.1,0.3-0.2,0.6-0.2,0.9
		c-1.3,0.1-2.2,1.2-2.8,2c-0.6,0.7-0.9,1.1-1.3,1.2c-0.1,0-0.3,0-0.5,0c-0.4,0-0.7,0.3-0.8,0.7c-0.1,0.4,0.2,0.8,0.6,0.9
		c0.2,0,0.3,0.1,0.5,0.1c0.1,0.1,0.2,0.4,0.4,1.1c0.2,1,0.6,2.5,2.2,3.3c0,2,0.3,3.9,3.8,4.5c7,2,19.2,3.2,33.3,3.2
		c14.1,0,26.3-1.2,33.3-3.1c3.5-0.6,3.8-2.5,3.8-4.5c1.6-0.8,2-2.3,2.2-3.3c0.2-0.8,0.3-1,0.4-1.1c0.1,0,0.3,0,0.4-0.1
		c0.4-0.1,0.6-0.5,0.6-0.9c0-0.4-0.4-0.7-0.8-0.7c-0.2,0-0.3,0-0.5,0c-0.4-0.1-0.7-0.5-1.3-1.2c-0.6-0.8-1.5-1.9-2.8-2
		c0-0.3-0.1-0.6-0.2-0.9c0.5-1.3,0.2-2.9-0.6-4.1c-0.7-1-1.8-1.5-2.9-1.5c-0.7-0.5-1.5-0.7-2.3-0.5c-0.7,0.2-1.6,0.5-2.8,0.8
		l-5-17.8l1.9,1.5l22.1,20.5c0.1,0.1,0.3,0.1,0.5,0.1c0.2-0.1,0.3-0.2,0.2-0.4L156.4,80.7z M125.2,81c-1.3-0.2-3-0.5-3.8-1.1
		c1.1,0.1,2.1,0.2,3.2,0.2C124.8,80.4,125,80.7,125.2,81z M102,80.1c0.9,0,1.8-0.1,2.8-0.2c-1,0.5-2.4,1.1-3.7,1.3
		C101.4,81,101.7,80.6,102,80.1z M106.9,79.7C106.9,79.7,106.9,79.7,106.9,79.7c1.2-0.2,2.4-0.5,3.7-0.8c-0.1,0.2-0.2,0.5-0.3,0.7
		c-0.4,0.3-2,1.7-4,2.8L106.9,79.7z M111.6,78.6c0.6-0.2,1.2-0.4,1.8-0.6c0.6,0.2,1.3,0.4,1.9,0.6c0.1,0.4,0.1,0.8,0.2,1
		c-0.4,0.4-1.5,1.4-2.2,2.3l-2.1-2.2C111.3,79.4,111.5,79,111.6,78.6z M116.3,79.6c-0.1-0.2-0.1-0.4-0.2-0.7
		c1.4,0.4,2.8,0.7,4.1,0.9c0.1,0.2,0.2,0.4,0.3,0.5l0,0c0.3,0.6,0.5,1.3,0.6,1.7C118.6,81.6,116.7,79.9,116.3,79.6z M107.2,70.2
		c1.3-4.2,1.7-8.3,1.2-10.7c0.1-0.1,0.2-0.2,0.3-0.3c0.3-0.3,1.5-0.1,2.2,0.1l0.3,0.1L111,59c-2.5-4.3-5.4-5.3-6.7-5.2
		c-1.2,0.1-1.9,1.3-2.2,2c-0.1,0-0.1,0.1-0.2,0.1c-0.1-0.3-0.1-0.9,0.1-1.6c0.1-0.4,0.2-0.8,0.3-1.1c0.4-0.3,1-0.6,1.9-0.7
		c1.9-0.1,2.4,0.1,3.9,1.3c1.5,1.2,2.7,1.8,3.5,1.6c0.1,0,0.2,0.2,0.3,0.3c0.1,0.1,0.1,0.2,0.2,0.3c0,0,0.1,0.1,0.1,0.1
		c0.1,0.2,0.3,0.3,0.8,0.3c0.3,0,0.6-0.4,0.8-0.7c0.1-0.2,0.2-0.3,0.3-0.4c0.3-0.2,0.9-0.4,1.3-0.5l0.2,0c0.7-0.2,1.1-0.2,1.5-0.2
		c0.2,0,0.3,0,0.5,0c0.4-0.1,1.7-0.1,2.4,0.4c0.7,1.4,1.4,4.2,1.2,9.5c-0.2,5.2,1.1,11.3,3,14.8c-1.1,0-2.2-0.1-3.3-0.3
		c-2-4-2.5-12.6-2.5-12.7l-0.8,0c0,0.4,0.5,8.2,2.4,12.5c-1.2-0.2-2.5-0.5-3.7-0.9c-0.3-3.2-0.4-9.6-0.4-12.3h-0.8c0,0.4,0,8,0.4,12
		c-0.6-0.2-1.1-0.4-1.7-0.5c-0.1,0-0.2,0-0.3,0c-0.5,0.2-0.9,0.3-1.3,0.4c1.2-4.6,1.6-12,1.7-12.3l-0.8,0c0,0.1-0.4,8.3-1.8,12.7
		c-1.1,0.3-2.2,0.6-3.3,0.8c2.3-4,3.5-12.7,3.6-13.1l-0.8-0.1c0,0.1-1.4,10.2-3.9,13.4c-1.3,0.2-2.6,0.3-3.9,0.4
		C104.2,77,106.2,73.6,107.2,70.2z M74.5,73.6c1-0.6,2.1-0.8,3.4-0.8c3.9,0,8.4,2.3,10.5,3.5c3.8,2.4,8,3.7,12.6,3.8
		c-0.6,0.9-1.1,1.4-1.1,1.4l-0.5,0.7h0.9c2,0,4.4-1.2,5.7-1.9l-0.9,3.6l0.8-0.4c2.2-1.1,4.1-2.6,4.8-3.2l2.7,2.8l0.3-0.4
		c0.6-0.9,1.8-2,2.3-2.5c0.7,0.7,2.7,2.2,5.5,2.5l0,0l0.3,0l0.1-0.2c0.1-0.1,0.2-0.4-0.2-1.6c1.7,0.7,4.4,0.9,4.7,0.9l0.2-0.8
		c-0.4-0.2-0.7-0.5-1.1-1c4.7-0.1,9-1.4,12.8-3.8c2.8-1.6,9.7-5,13.9-2.7c2,1.1,3.1,3.4,3.3,6.8c-1.5-1-3.8-2.4-4.8-2.4l3.1,73.5
		l-1.5-1.4l-3.2-70.9c-1,1-4.2,3.6-4.7,4.2v0l2.6,61.8l-2.1-2L142.3,85c-1,1-3.1,2.6-3.7,3.1l2.1,51.2l-2.1-2l-2-48.2
		c-1,0.5-3.1,1.6-4.2,1.6l2,42.4l-2.3-8l-1.3-33.9c-1,0-3.7,0-4.2-0.5l0.8,19.6c0,0,0,0-0.1,0l-8,9l-5.1-4.8c-0.2-0.1-0.4-0.1-0.6,0
		l-5.8,5.2l-8.4-9.5c0,0,0,0-0.1,0l0.8-19.6c-0.5,0.5-3.1,0.5-4.2,0.5l-1.3,33.9l-2.3,8l2-42.4c-1,0-3.1-1.1-4.2-1.6l-2.1,48.6
		l-2.1,1.9l2.1-51.6h0c-0.6-0.6-2.7-2.1-3.7-3.1l-2.6,58.6l-2.1,1.9l2.7-62.1v0c-0.6-0.6-3.7-3.1-4.7-4.2l-3.2,71.1l-1.5,1.4L76,78
		c-0.9,0-3.2,1.3-4.8,2.4C71.5,77,72.6,74.7,74.5,73.6z M139.7,155.1l-7.5,1.1c-0.2-0.1-0.5-0.2-0.7-0.2l0.1-0.3
		c3-0.4,5.7-1,7.9-1.6L139.7,155.1z M132.8,157.9c-0.8,0.1-1.6,0.2-2.5,0.3c0.1-0.3,0.2-0.6,0.3-0.8c0.1,0,0.1,0,0.2,0
		c0.1,0,0.2-0.1,0.3-0.2l0.9-0.1C132.3,157.3,132.6,157.6,132.8,157.9z M145.2,155.5c0-0.2,0-0.3,0-0.4c0-0.2,0-0.3,0-0.5
		C145.4,154.9,145.4,155.2,145.2,155.5z M113.4,158.8c-0.2,0-0.5,0-0.7,0c-0.1-0.3-0.1-0.5-0.3-0.8c-0.3-0.6-1-1.3-2.3-1.4
		c-0.5-0.6-1.2-1.1-2-1.1c0,0,0,0,0,0c-1,0.1-2.1,0.2-3.3,0.2l0.6-2.5l1.6,1.6l2.5-1.9l2.4-17.2l-1,17.1l2.4,3.1l2.4-3.1l-1-17.1
		l2.4,17.2l2.5,1.9l1.6-1.6l0.6,2.5c-1.1,0-2.2-0.1-3.3-0.2c-0.8,0-1.6,0.4-2.1,1.1c-1.3,0-2,0.8-2.3,1.4c-0.1,0.2-0.2,0.5-0.3,0.8
		C113.9,158.8,113.6,158.8,113.4,158.8z M111.4,162.3c-0.3-0.5-0.9-0.9-1.4-1.2c-0.4-0.3-0.9-0.6-0.9-0.9c1,0,1.9,0.1,2.9,0.1
		C111.9,161,111.7,161.7,111.4,162.3z M81.5,154.6c0,0.2,0,0.3,0,0.5c0,0.1,0,0.3,0,0.4C81.4,155.2,81.4,154.9,81.5,154.6z
		 M87.1,155.1l0.3-0.9c2.2,0.6,4.9,1.2,7.9,1.6l0.1,0.3c-0.3,0-0.5,0.1-0.7,0.2L87.1,155.1z M108.1,136.1l-2.1-7.4l1.9-2.5l-0.7-0.5
		l-4.6,6l-0.6-5.4l5.7-5.2l2.9,3.3L108.1,136.1L108.1,136.1z M96.2,129.9c0.1,0,0.1,0.1,0.2,0.1c0,0,0.1,0,0.1,0
		c0.1,0,0.2,0,0.3-0.1l4.4-4.2l0,0.2l-8,7.3l1.3-4.7l-0.1,3.2L96.2,129.9z M102,125l3-2.9l-0.6-0.6l-2.6,2.4l-0.8-7.3l-0.8,0.1
		l0.8,8l-2.4,2.3l0.6-15.5l7.9,9l-5.3,4.8L102,125z M132.4,131.5l-0.1-3.1l1.1,4L132.4,131.5z M128.1,126.9l-2.4-2.3l0.8-8l-0.8-0.1
		l-0.8,7.3l-2.6-2.4l-0.4,0.4l-2.1-1.9l7.5-8.5L128.1,126.9z M124.7,125.6l-0.6,6.1l-4.6-6l-0.7,0.5l1.9,2.5l-2.1,7.4l0,0l-2.6-11.7
		l3.3-3.7L124.7,125.6z M129.7,156l0.3,0.5l-3.7,0.6l0.3-0.8C127.6,156.3,128.7,156.2,129.7,156z M126.8,155.5l0.9-2.8l1.5,2.5
		C128.4,155.3,127.6,155.4,126.8,155.5z M123.1,158.4l1.6-0.2c0,0.1,0.1,0.2,0.2,0.2h3.1c-1.5,0.1-3.1,0.2-4.9,0.3
		C123.2,158.6,123.2,158.5,123.1,158.4z M125.4,157.3l-2.2,0.3l-0.2-1c0.9,0,1.8-0.1,2.7-0.1L125.4,157.3z M122.5,158
		c-0.8-0.2-2.1-0.3-3.2-0.3l0,0c-0.1,0-0.2,0-0.3,0.2c-0.1,0.1,0,0.2,0.1,0.3l0,0c0.1,0.1,0.1,0.1,0.2,0.1l2.5,0.3
		c-1.2,0-2.4,0.1-3.7,0.1c-0.2-0.2-0.3-0.3-0.5-0.4c-0.3-0.2-0.4-0.3-0.5-0.5c0.1-0.7,0.8-1.5,1.7-1.5c1.1,0.1,2.3,0.2,3.5,0.2
		L122.5,158z M128.8,158.3c0.1,0,0.1-0.1,0.1-0.2c0-0.1,0-0.3-0.1-0.3c-0.1-0.1-0.3-0.1-0.4-0.2l1.3-0.2c-0.1,0.3-0.2,0.5-0.3,0.8
		C129.2,158.3,129,158.3,128.8,158.3z M130.6,155.9C130.6,155.9,130.6,155.9,130.6,155.9L130.6,155.9L130.6,155.9z M130.9,155
		c-0.3,0-0.5,0.1-0.8,0.1l-2.1-3.6c-0.1-0.1-0.2-0.2-0.4-0.2c-0.2,0-0.3,0.1-0.4,0.3l-1.3,4c-1.1,0.1-2.1,0.1-3.1,0.2l-0.7-3.2
		l0.2-0.2l-0.3-1.3l1.4-6.5l3.4,5.3c0.1,0.1,0.2,0.2,0.4,0.2c0.2,0,0.3-0.1,0.3-0.3l1.8-5.5l3.3,5.4L130.9,155z M121.5,149.1
		l-2.4-10.8l3.5,5.3L121.5,149.1z M115.9,123.4l-0.1-0.4H111l-0.1,0.4l-2.5-2.8l5.5-5l4.9,4.5L115.9,123.4z M105.3,149.1l-1.2-5.4
		l3.5-5.3L105.3,149.1z M104.9,151.1l-0.3,1.3l0.2,0.2l-0.7,3.2c-1,0-2.1-0.1-3.1-0.2l-1.3-4c-0.1-0.2-0.2-0.3-0.4-0.3
		c-0.2,0-0.3,0.1-0.4,0.2l-2.1,3.6c-0.3,0-0.5-0.1-0.8-0.1l-1.6-5.4l3.3-5.4l1.8,5.5c0.1,0.2,0.2,0.3,0.3,0.3c0.2,0,0.3-0.1,0.4-0.2
		l3.4-5.3L104.9,151.1z M100.3,156.4l0.3,0.8l-3.7-0.6l0.3-0.5C98.1,156.2,99.2,156.3,100.3,156.4z M97.6,155.2l1.5-2.5l0.9,2.8
		C99.2,155.4,98.4,155.3,97.6,155.2z M102.1,158.2l1.5,0.2c-0.6,0-1.1,0-1.7-0.1C102,158.3,102.1,158.3,102.1,158.2z M96.1,155.9
		C96.2,155.9,96.2,155.9,96.1,155.9L96.1,155.9L96.1,155.9z M98.4,157.6c-0.2,0.1-0.3,0.1-0.4,0.2c-0.1,0.1-0.2,0.2-0.1,0.3
		c-0.2,0-0.3,0-0.5,0c-0.1-0.2-0.1-0.4-0.2-0.7L98.4,157.6z M109.8,157.8c-0.1,0.1-0.2,0.3-0.5,0.5c-0.1,0.1-0.2,0.2-0.3,0.3
		c-0.4,0-0.8,0-1.2,0c-0.5,0-0.9,0-1.4-0.1l1.3-0.2c0.1,0,0.2-0.1,0.3-0.1c0.1-0.1,0.1-0.2,0-0.3c-0.1-0.1-0.2-0.2-0.3-0.1l0,0
		c-1.2,0-2.4,0-3.2,0.3l0.3-1.4c1.2,0,2.4,0,3.5-0.2C108.9,156.4,109.7,157.1,109.8,157.8z M103.6,157.6l-2.2-0.3l-0.3-0.9
		c0.9,0.1,1.8,0.1,2.7,0.1L103.6,157.6z M99.9,148.7l-1.8-5.5c-0.1-0.2-0.2-0.3-0.4-0.3c0,0,0,0,0,0c-0.1,0-0.3,0.1-0.4,0.2
		l-3.3,5.4l-2.4-8.9l4.7-4.9l1.5,5.3c0,0.2,0.2,0.3,0.3,0.3c0.2,0,0.3,0,0.4-0.2l3.3-4.4l1.4,7.7L99.9,148.7z M93.6,150.4l1.4,4.5
		c-1.4-0.2-2.8-0.5-4.1-0.7L93.6,150.4z M94.8,157.1l0.9,0.1c0.1,0.1,0.2,0.2,0.3,0.2c0.1,0,0.1,0,0.2,0c0.1,0.2,0.2,0.4,0.3,0.6
		c-0.8-0.1-1.7-0.1-2.4-0.2C94.2,157.5,94.5,157.2,94.8,157.1z M94.9,160c0.4,0.1,0.9,0.1,1.4,0.2c-0.2,0.2-0.3,0.4-0.5,0.5
		c-0.2,0.2-0.5,0.4-0.7,0.8c-0.2-0.3-0.4-0.6-0.6-0.9c-0.2-0.3-0.4-0.5-0.5-0.8C94.3,159.9,94.6,159.9,94.9,160z M110.6,158.7
		c0.1-0.3,0.1-0.6,0.1-0.8c0,0,0,0,0,0c0-0.1,0-0.2,0-0.4c0.5,0.1,0.8,0.4,1,0.9c0.1,0.1,0.1,0.2,0.1,0.3
		C111.4,158.7,111,158.7,110.6,158.7z M115.1,158.4c0.2-0.4,0.6-0.7,1-0.9c0,0.2,0,0.3,0,0.4c0,0.2,0,0.5,0.1,0.8
		c-0.4,0-0.9,0-1.3,0C115,158.6,115,158.5,115.1,158.4z M117.6,160.3c-0.2,0.2-0.5,0.5-0.9,0.7c-0.5,0.3-1,0.7-1.4,1.2
		c-0.3-0.6-0.5-1.3-0.6-1.9C115.8,160.4,116.7,160.3,117.6,160.3z M131.9,160c0.3-0.1,0.6-0.1,1-0.2c-0.1,0.3-0.3,0.5-0.5,0.8
		c-0.2,0.3-0.4,0.5-0.6,0.9c-0.2-0.3-0.5-0.5-0.7-0.8c-0.2-0.2-0.4-0.4-0.5-0.5C131,160.1,131.5,160.1,131.9,160z M131.8,154.9
		l1.4-4.5l2.7,3.8C134.6,154.4,133.3,154.7,131.8,154.9z M132.8,148.5l-3.3-5.4c-0.1-0.1-0.2-0.2-0.4-0.2c-0.2,0-0.3,0.1-0.4,0.3
		l-1.8,5.5l-3.4-5.2l1.4-7.7l3.3,4.4c0.1,0.1,0.3,0.2,0.4,0.2c0.2,0,0.3-0.1,0.3-0.3l1.5-5.3l4.7,4.9L132.8,148.5z M130.6,133.6
		c-0.1-0.1-0.3-0.1-0.4-0.1c-0.1,0-0.3,0.1-0.3,0.3l-1.5,5.2l-3.4-4.5c-0.1-0.1-0.3-0.2-0.4-0.2c-0.2,0-0.3,0.2-0.3,0.3l-1.4,7.9
		l-3.6-5.5l2.2-7.5l2.6,3.5c0.1,0.1,0.3,0.2,0.4,0.1c0.2,0,0.3-0.2,0.3-0.4l0.7-6.5l8.3,7.7l1.1,4.1L130.6,133.6z M101.4,127
		l0.6,5.8c0,0.2,0.1,0.3,0.3,0.4c0.2,0,0.3,0,0.4-0.1l2.6-3.5l2.2,7.5l-3.6,5.5l-1.4-7.9c0-0.2-0.2-0.3-0.3-0.3
		c-0.2,0-0.3,0-0.4,0.2l-3.4,4.5l-1.5-5.2c0-0.1-0.2-0.3-0.3-0.3c-0.1,0-0.3,0-0.4,0.1l-4.4,4.5l0.9-3.3L101.4,127z M91.1,140.9
		l2.3,8.4L90,154c-0.9-0.2-1.7-0.4-2.5-0.6L91.1,140.9z M83.8,153.1c0.7,0.2,1.7,0.5,2.8,0.8l-0.2,0.9c-0.7-0.4-2-0.8-2.8-0.8
		c-0.1,0-0.2,0-0.3,0.2c-0.1,0.1,0,0.3,0.1,0.4l0,0c0,0,0.1,0,0.1,0l2.9,1c0,0,0,0,0,0c0.1,0.1,0.2,0.2,0.3,0.2l1.9,0.3
		c0,0,0,0.1,0,0.1l0,0c0,0.1,0.1,0.1,0.2,0.1l3.7,1c0,0,0.1,0,0.1,0c0.1,0,0.2-0.1,0.3-0.2c0.1-0.1,0-0.3-0.1-0.4c0,0-0.1,0-0.2-0.1
		l1.3,0.2c-0.2,0.2-0.4,0.5-0.5,0.8c-2.8-0.3-5.4-0.8-7.4-1.4c-1.2-0.4-2.3-0.6-3.4-0.5c0-0.3,0-0.6,0-0.8c-0.1-0.4-0.1-0.6,0.4-1.4
		c0.1-0.1,0.1-0.2,0.1-0.3c0.2-0.1,0.5-0.1,0.7-0.1C83.6,153.1,83.7,153.1,83.8,153.1z M79.5,154.8c0.2-0.3,0.7-0.8,1.4-1
		c-0.1,0.1-0.1,0.3-0.2,0.4c-0.1,0.3-0.2,1,0.2,1.8c-0.5,0.2-1,0.4-1.4,0.7c-0.2,0.2-0.5,0.4-0.7,0.7
		C78.7,156.5,79,155.6,79.5,154.8z M150.4,162.3c0.3,0.4,0.7,0.9,1.2,1.3c-0.2,0.4-0.3,0.9-0.4,1.2c-0.3,1.1-0.5,2-1.7,2.4
		c-0.3,0.1-0.5,0.4-0.5,0.7c0,2.1,0,3-2.6,3.5c-7,2-19,3.1-33,3.1c-13.8,0-26.1-1.2-33-3.1c-2.6-0.5-2.6-1.4-2.6-3.5
		c0-0.3-0.2-0.6-0.5-0.7c-1.3-0.4-1.5-1.3-1.7-2.4c-0.1-0.4-0.2-0.8-0.4-1.2c0.5-0.4,0.9-0.9,1.2-1.3c0.8-1.1,1.3-1.6,2.1-1.4
		c0.2,0,0.5,0,0.7-0.2c0.2-0.1,0.3-0.4,0.3-0.6c0-1,0.3-1.8,1-2.2c0.1-0.1,0.2-0.1,0.3-0.2c0.1,0,0.2-0.1,0.3-0.1
		c0.4-0.2,0.9-0.3,1.5-0.3c0.1,0,0.1,0.1,0.2,0.1c3,0.8,7.3,1.7,10.2,2.2c0.1,0.6,0.5,1.1,0.8,1.5c0.4,0.5,0.8,1,0.8,1.9
		c0,0.2,0.2,0.4,0.4,0.4s0.4-0.2,0.4-0.4c0-0.9,0.4-1.2,0.9-1.6c0.3-0.3,0.7-0.6,0.9-1.1c2,0.2,4.5,0.4,6.8,0.4
		c1.3,0,2.5-0.1,3.6-0.2c0.2,0,0.4-0.1,0.6-0.1c0.2,0.5,0.7,0.9,1.3,1.3c0.7,0.5,1.3,0.9,1.3,1.5c0,0.2,0.1,0.3,0.3,0.4
		c0,0,0.1,0,0.1,0c0.1,0,0.3-0.1,0.3-0.2c0.6-0.8,1-2,1.2-3.2c0.2,0,0.4,0,0.6,0c0.2,0,0.4,0,0.6,0c0.1,1.2,0.6,2.3,1.1,3.2
		c0.1,0.1,0.2,0.2,0.3,0.2c0,0,0.1,0,0.1,0c0.2-0.1,0.3-0.2,0.3-0.4c0-0.6,0.7-1.1,1.3-1.5c0.6-0.4,1.1-0.8,1.3-1.3
		c0.2,0,0.4,0.1,0.6,0.1c1.1,0.1,2.3,0.2,3.6,0.2c2.3,0,4.8-0.2,6.8-0.4c0.2,0.5,0.6,0.8,0.9,1.1c0.5,0.4,0.9,0.8,0.9,1.6
		c0,0.2,0.2,0.4,0.4,0.4c0.2,0,0.4-0.2,0.4-0.4c0-0.8,0.4-1.3,0.8-1.9c0.3-0.4,0.7-0.9,0.8-1.5c2.9-0.5,7.2-1.4,10.3-2.2
		c0.1,0,0.1-0.1,0.2-0.1c0.5,0,1,0.1,1.5,0.3c0.1,0.1,0.2,0.1,0.3,0.1c0.1,0.1,0.2,0.1,0.3,0.2c0.6,0.5,1,1.2,1,2.2
		c0,0.2,0.1,0.5,0.3,0.6c0.2,0.1,0.4,0.2,0.7,0.2C149.1,160.7,149.6,161.2,150.4,162.3z M147.3,154.8c0.5,0.7,0.8,1.7,0.7,2.5
		c-0.2-0.3-0.5-0.5-0.7-0.7c-0.4-0.3-0.9-0.5-1.4-0.7c0.5-0.8,0.3-1.5,0.2-1.8c0-0.1-0.1-0.3-0.2-0.4
		C146.6,154,147,154.5,147.3,154.8z M143,153.2c0.3-0.1,0.7,0,1,0.1c0,0.1,0,0.2,0.1,0.3c0.5,0.7,0.4,1,0.4,1.4c0,0.2-0.1,0.5,0,0.8
		c-1,0-2.2,0.1-3.4,0.5c-1.9,0.6-4.3,1.1-7.3,1.5c-0.1-0.3-0.3-0.6-0.6-0.9l1.3-0.2c-0.1,0-0.1,0-0.2,0.1c-0.1,0.1-0.2,0.2-0.1,0.4
		c0,0.1,0.2,0.2,0.3,0.2c0,0,0.1,0,0.1,0l3.7-1c0.1,0,0.1,0,0.2-0.1c0,0,0-0.1,0-0.1l1.9-0.3c0.1,0,0.2-0.1,0.3-0.2c0,0,0,0,0,0
		l2.9-1c0.1,0,0.2-0.2,0.2-0.3c0-0.1-0.1-0.2-0.3-0.2c-0.9,0-2.1,0.3-2.9,0.8l-0.2-0.9C141.3,153.7,142.3,153.4,143,153.2z
		 M136.8,154l-3.3-4.7l2.3-8.4l3.5,12.5C138.5,153.6,137.7,153.8,136.8,154z"/>
	<polygon class="st0" points="76,78 76,78 76,78 	"/>
	<polygon class="st0" points="150.8,78 150.8,78 150.8,78 	"/>
	<path class="st0" d="M82.8,161.5c-0.3-0.1-0.6,0.1-0.7,0.5c-0.1,0.3,0.1,0.6,0.4,0.7c0.2,0,0.4,0,0.4-0.1c0,0,0.1-0.1,0.1-0.1
		c0.1,0,0.3-0.4,0.3-0.5C83.4,161.9,83,161.6,82.8,161.5z"/>
	<path class="st0" d="M118.9,165.3c0.2,0.1,0.6,0,0.7-0.1c0.3-0.2,0.3-0.6,0.1-0.8c-0.1-0.1-0.4-0.3-0.6-0.3c-0.2,0-0.6,0.4-0.6,0.7
		C118.5,165,118.7,165.2,118.9,165.3z"/>
	<path class="st0" d="M119.5,165.8l-0.2-0.1l-0.2,0.1c-0.3,0.2-0.4,0.2-0.3,0.6c0,0.3,0.1,0.4,0.4,0.5l0,0c0.2,0.1,0.2,0.1,0.5,0
		c0.3-0.1,0.4-0.4,0.4-0.6C120,166.1,119.8,166,119.5,165.8z"/>
</g>
</svg>
