<?xml version="1.0" encoding="utf-8"?>
<!-- Generator: Adobe Illustrator 22.0.1, SVG Export Plug-In . SVG Version: 6.00 Build 0)  -->
<svg version="1.1" id="Layer_1" xmlns="http://www.w3.org/2000/svg" xmlns:xlink="http://www.w3.org/1999/xlink" x="0px" y="0px"
	 viewBox="0 0 226.8 226.8" style="enable-background:new 0 0 226.8 226.8;" xml:space="preserve">
<style type="text/css">
	.st0{fill:#FFFFFF;}
</style>
<g>
	<path class="st0" d="M153.1,95.5c-0.6-0.3-1.2-0.8-1.4-1.1c-0.3-0.4-0.1-0.5,1.2-0.1c2.3,0.6,3.8,0.4,5.3-0.9l1.3-1.1l1.5,0.8
		c0.8,0.4,1.7,0.7,2,0.7c0.7-0.2,2-1.9,2-2.6c-0.1-0.8,0.6-0.6,0.9,0.3c0.6,1.6-0.3,3.5-1.9,3.9c-0.8,0.2-1.5,0.1-2.7-0.3
		c-1.4-0.5-1.7-0.5-2.4,0.1C157.3,96.5,155.1,96.6,153.1,95.5L153.1,95.5z M158.8,90.3c-0.6-0.7-1.2-3.4-1-4.1
		c0.2-0.6,0.4-0.7,0.9-0.5c0.9,0.3,1.1,0.9,1,3.1C159.6,90.5,159.3,90.9,158.8,90.3L158.8,90.3z M91.3,88.3
		c-0.2,1.3,2.3,4.6,3.5,5.2c-0.8,0.3-1.7,0.2-2.4,0.6c-3.9,3.9-18.4,18-21,21.4c7.8,0.2,16.4-0.1,23.8-0.4c0-5.3,5-5.6,8.4-7.5
		c1.7,2.7,6.1,2.5,6.6,6.6c0,4.9,0,12.3,0,17.6H43.5c-1.2,5.2-5.8,9.1-12.4,7.5c2-2.1,5.4-2.8,6.6-5.7c1-6.4-2-10.3-4-13.9
		c3.3-1.2,3.8-1.5,7.1-3.7c-2.3,7.1,6.1,6.3,12.4,6.2c0.2-2.4,0.1-5.3-1.8-5.6c2.4-0.9,2.8-1.2,6.6-4.4v9.6
		c14.9,0,30.9-0.1,46.1-0.1c0-3,0.8-7.8-1.6-7.8c-2.3,0-0.1,6.2-1.9,6.2H65.1c0-1.3,0-4.1,0-6.1c1.5-1.5,1.3-1.4,11.6-11.7
		C77.7,101,84.9,94.5,91.3,88.3L91.3,88.3z M180.3,88.1c2.5,1.3,4.5,3.2,7.5,4c-0.4,1.3-1.5,1.8-1.8,3.1v26.9
		c3.4,0.8,4.1-1.2,5.7-2.2c0.4,4.3,3.2,8.5,3.1,11.9h-14.6L180.3,88.1L180.3,88.1z M160.9,102.5c0,0,5.3-4.5,5.3-4.6v23.5l3.8,0
		c0-8.9-0.1-18-0.1-26.3c1.5-1.5,4.6-3.8,5.3-5.4v42.1c-10.7,0-30.8,0-33.4,0c-0.5-8.7-0.6-17.8,9.6-15.8v-3.6
		c-0.3-0.6-0.9,0.1-1-0.6c1.6-1.6,2.2-2,6.5-5.9c0,4.6,0.1,15.5,0.1,15.5c1.1,0,3.2,0,3.9,0C160.9,121.3,160.9,103.1,160.9,102.5
		L160.9,102.5z M148.4,121.1c0.7,1.1,3.2,1.1,3-0.8C151,118.9,147.8,119.4,148.4,121.1z"/>
	<circle class="st0" cx="51.6" cy="136.7" r="2"/>
	<path class="st0" d="M114.6,88.1c2.5,1.3,4.5,3.2,7.5,4c-0.4,1.3-1.5,1.8-1.8,3.1v26.9c3.4,0.7,4.1-1.2,5.7-2.2
		c0.4,4.3,3.2,8.5,3.1,11.9h-14.6L114.6,88.1L114.6,88.1z"/>
</g>
</svg>
