<?xml version="1.0" encoding="utf-8"?>
<!-- Generator: Adobe Illustrator 22.0.1, SVG Export Plug-In . SVG Version: 6.00 Build 0)  -->
<svg version="1.1" id="Layer_1" xmlns="http://www.w3.org/2000/svg" xmlns:xlink="http://www.w3.org/1999/xlink" x="0px" y="0px"
	 viewBox="0 0 288 504" style="enable-background:new 0 0 288 504;" xml:space="preserve">
<style type="text/css">
	.st0{fill:url(#SVGID_1_);}
	.st1{fill:url(#SVGID_2_);}
	.st2{opacity:0.6;fill:url(#SVGID_3_);}
	.st3{fill:url(#SVGID_4_);}
	.st4{fill:url(#SVGID_5_);}
	.st5{fill:url(#SVGID_6_);}
	.st6{fill:url(#SVGID_7_);}
	.st7{fill:none;}
	.st8{opacity:0.6;fill:url(#SVGID_8_);}
	.st9{fill:#636363;}
</style>
<linearGradient id="SVGID_1_" gradientUnits="userSpaceOnUse" x1="-108.6" y1="245.4748" x2="395.4" y2="245.4748" gradientTransform="matrix(6.123234e-17 1 1 -6.123234e-17 -101.4748 108.6)">
	<stop  offset="0" style="stop-color:#FE9700"/>
	<stop  offset="1" style="stop-color:#FFE263"/>
</linearGradient>
<rect class="st0" width="288" height="504"/>
<linearGradient id="SVGID_2_" gradientUnits="userSpaceOnUse" x1="-8" y1="332.8185" x2="395.4" y2="332.8185" gradientTransform="matrix(6.123234e-17 1 -1 6.123234e-17 402.1 108.6)">
	<stop  offset="0" style="stop-color:#FE8900"/>
	<stop  offset="1" style="stop-color:#FE5500"/>
</linearGradient>
<path class="st1" d="M132.9,504c7.1-16.2,7.9-35.2-0.5-53.2c-25.7-55.7-80.8-60.7-53-111.4c8.3-15.1,17.7-26.5,20.8-41
	c8.8-41.5-51-53.7-45.8-91.8c3.4-24.3,13.5-60.9-21.2-91.1c-10-8.7-20.9-12.7-33.1-14.9V504H132.9z"/>
<linearGradient id="SVGID_3_" gradientUnits="userSpaceOnUse" x1="244.1261" y1="254.3733" x2="303.0867" y2="83.1606" gradientTransform="matrix(6.123234e-17 1 1 -6.123234e-17 -101.4748 108.6)">
	<stop  offset="0" style="stop-color:#FE8900"/>
	<stop  offset="1" style="stop-color:#FE5500"/>
</linearGradient>
<path class="st2" d="M141.2,504c-3.1-10.6-6.2-20-7.7-27.2c-3-14.1,2.4-14.8,20.7-42.6c19.3-29.3,6.5-73.5-34.2-86.9
	c-13.9-4.6-25.1-4.7-41.2-7.8c-25.3-4.9-32.6-22-40.8-36.6C31.9,292,22.1,269,0.1,258.1V504H141.2z"/>
<g>
	
		<linearGradient id="SVGID_4_" gradientUnits="userSpaceOnUse" x1="307.6" y1="215.031" x2="307.6" y2="253.8224" gradientTransform="matrix(6.123234e-17 1 1 -6.123234e-17 -101.4748 108.6)">
		<stop  offset="0" style="stop-color:#FE9700"/>
		<stop  offset="1" style="stop-color:#FFE263"/>
	</linearGradient>
	<circle class="st3" cx="131.5" cy="416.2" r="23.3"/>
</g>
<linearGradient id="SVGID_5_" gradientUnits="userSpaceOnUse" x1="-108.6" y1="165.45" x2="236.1" y2="165.45" gradientTransform="matrix(6.123234e-17 1 -1 6.123234e-17 402.1 108.6)">
	<stop  offset="0" style="stop-color:#FE8900"/>
	<stop  offset="1" style="stop-color:#FE5500"/>
</linearGradient>
<path class="st4" d="M208.3,233.7c-7.3,36.9,11.7,68.1,42,90.1c13,9.4,25.4,16.1,37.7,20.9V0H185.3c3.7,34.6,25.7,64.4,45.6,105.7
	C252.7,151,218.8,180.3,208.3,233.7z"/>
<g>
	
		<linearGradient id="SVGID_6_" gradientUnits="userSpaceOnUse" x1="172" y1="162.0828" x2="172" y2="175.5609" gradientTransform="matrix(6.123234e-17 1 1 -6.123234e-17 -101.4748 108.6)">
		<stop  offset="0" style="stop-color:#FE5500"/>
		<stop  offset="1" style="stop-color:#FE8900"/>
	</linearGradient>
	<circle class="st5" cx="66.9" cy="280.6" r="8.1"/>
</g>
<g>
	
		<linearGradient id="SVGID_7_" gradientUnits="userSpaceOnUse" x1="25.4" y1="247.1771" x2="25.4" y2="266.7569" gradientTransform="matrix(6.123234e-17 1 1 -6.123234e-17 -101.4748 108.6)">
		<stop  offset="0" style="stop-color:#FE5500"/>
		<stop  offset="1" style="stop-color:#FE8900"/>
	</linearGradient>
	<circle class="st6" cx="154.8" cy="134" r="11.7"/>
</g>
<path class="st7" d="M250.3,323.8c-30.3-22-49.3-53.3-42-90.1c10.5-53.4,44.4-82.7,22.6-128C211,64.4,189,34.6,185.3,0H0v100.6
	c12.2,2.2,23.2,6.2,33.2,14.9c34.6,30.2,24.5,66.8,21.2,91.1c-5.3,38.1,54.5,50.4,45.8,91.8c-3.1,14.5-12.5,25.8-20.8,41
	c-27.8,50.7,27.3,55.7,53,111.4c8.3,18.1,7.6,37.1,0.5,53.2H288V344.7C275.7,339.9,263.2,333.3,250.3,323.8z"/>
<linearGradient id="SVGID_8_" gradientUnits="userSpaceOnUse" x1="32.4353" y1="292.999" x2="-7.2497" y2="408.6526" gradientTransform="matrix(6.123234e-17 1 1 -6.123234e-17 -101.4748 108.6)">
	<stop  offset="0" style="stop-color:#FE8900"/>
	<stop  offset="1" style="stop-color:#FE5500"/>
</linearGradient>
<path class="st8" d="M167.5,0c-39.7,47.6-10.4,55.4,7.9,95c16.5,35.7-4,59.6-3.2,92.6c-0.9,26.8,8.8,47.3,28.9,62.9
	c28,21.6,60.9,20.4,86.9,4.7V0H167.5z"/>
<polygon class="st9" points="132.9,504 132.9,504 0.2,504 0.2,504 "/>
<path class="st9" d="M0,504h0.1V100.6H0V504z"/>
<polygon class="st9" points="0.1,504 0.1,504 0,504 0,504 "/>
</svg>
