<?xml version="1.0" encoding="utf-8"?>
<!-- Generator: Adobe Illustrator 22.0.1, SVG Export Plug-In . SVG Version: 6.00 Build 0)  -->
<svg version="1.1" id="Layer_1" xmlns="http://www.w3.org/2000/svg" xmlns:xlink="http://www.w3.org/1999/xlink" x="0px" y="0px"
	 viewBox="0 0 226.8 226.8" style="enable-background:new 0 0 226.8 226.8;" xml:space="preserve">
<style type="text/css">
	.st0{fill:#FFFFFF;}
</style>
<path class="st0" d="M111.2,53.7c-2.6,5.4-7.4,9.1-12,12.7c-0.8,0.7-2.6,1.9-1.3,2.9c1.2-1.3,4.4,0.4,2.5,1.8
	c-1.7,1.6-4,2.1-5.8,3.4c-1.6,0.9-3.3,1.8-4.6,3.2c-0.1,2.1,2.6,1,3.8,1.8c1.4,1.5-0.6,4.1-2.5,3.6c-2.4,0.1-4.1,2.2-5,4.2
	c-1.9,2.9-5.5,3.8-8.3,5.5c-1.6,1-3.2,2-4.7,3.1c-2,1.3-0.3,4,1.8,3.3c2.3-0.2,4.3-2,6.6-1.5c2.1,0.7,2.7,3.5,2,5.4
	c-0.5,1.5-1.8,2.6-2.9,3.8c-1.7,1.7-3.9,2.8-6.2,3.3c-2.2,0.8-4.3,2.1-5.7,4c-1.7,1.7-3.4,3.5-5.4,4.9c-0.6,1.6,1.1,2.9,2.6,2.9
	c3.1-0.2,5.2-2.7,7.8-4c2.2-1,4.7,1.4,4.2,3.6c-0.2,2.2-2.2,3.3-4.1,4c-5.4,2.7-10.1,6.6-14.2,11c-0.9,1.8-3.2,1.2-4.5,2.5
	c-0.8,1.5,1.3,2.4,2.5,2.2c5.3-0.6,10.3-2.9,15-5.4c1.8-0.8,3.4-1.9,5.2-2.6c1.7-0.4,4.1,0.3,4.4,2.3c0,2.1-2,3.2-3.7,4
	c-5,2.6-10.4,4.1-15.8,5.8c-2-0.6-3.5,3-1.3,3.6c2.3,0.8,4.8,0.2,7.1,0.1c7.3-1.1,13.7-5.1,20.5-7.6c2.8-0.9,6.2,0.4,7.6,3
	c1.4,2.4,1.3,5.5-0.2,7.8c-2.3,5-5.9,9.6-10.7,12.5c-3,1.5-6.5,2.1-9.1,4.3c-2.4,0.8,1.2,4,1.7,1.5c1.4-2,4-2.5,6.3-2.6
	c3.4-0.4,7.1-1,9.8-3.4c2.4-1.9,4.8-4.4,8-4.5c1.8,0.2,3.6,1.7,5.4,0.8c1.6-0.7,4.1-0.3,4.5,1.7c0.8,2.3,3.1,3.4,5,4.6
	c0.7,1,2.9,3.4,3.5,1.2c-0.4-1.6,0.2-3.9,2.2-3.4c1.8,0.1,3.5,0.7,5.2,0.8c2.4,0.5,4.3,2.1,5.7,4.1c0.9,1.3,2.9,3.5,4.4,1.8
	c0.9-1.7-0.8-3.2-2.3-3.8c-2.1-1.3-3.9-3.1-5.8-4.7c-2.7-2.5-5.1-5.8-5.5-9.6c-0.6-3.8-0.3-7.6,0.2-11.4c0.6-2.4,3.7-3.8,5.9-2.5
	c3.1,1.4,6.1,3.4,9.6,3.2c5.1,0.1,10.3-0.9,15.2,0.6c4.8,1.5,8.3,5.6,13,7.3c1.1,0.6,2.4,0,2.8-1.1c0.5-1,0.1-2.3-0.8-2.9
	c-5.4-5.5-12.9-8.2-19.2-12.5c-2-0.5-2.3-3.7-0.5-4.6c2.4-1.8,5.8-0.9,8,0.9c1.8,1.1,3.8,1.8,6,1.9c2.2-0.7,1.1-3.8-0.8-4.1
	c-3.5-2-6-5.2-9.1-7.8c-1.8-1.5-3.7-3-6-3.3c-1.3-0.2-2.6-0.3-3.9-0.2c-1.2-1.3,0.4-3.4,2-3.2c1.6,0.1,3.2,0.2,4.9,0
	c1.8-0.1,3.6-0.3,5.4-0.3c1.5,1,4.4-0.7,3.1-2.5c-1.4-1.3-3.5-1.2-5.3-1.8c-3-1-6.1-1.8-9.3-2.4c-2.2-0.1-1.9-3,0-3.3
	c1.3-0.5,2.4,0.5,3.6,0.6c2.1,0.4,4.2,0.4,6.3,0.9c1.8-0.9,0.4-3.4-1.2-3.6c-3.7-1.3-7-3.8-10.1-6.1c-3.5-2.6-6.7-5.7-10.2-8.2
	c-1.3-0.8-3.4-1-3.7-2.8c-0.1-1.6,1.8-2.4,3.1-2c1.9,0.6,3.7,1.6,5.7,2c1.5,0.3,3.1,0.7,4.6,0.5c1.9-1.2-0.8-1.9-1.8-2.3
	c-2.5-1.3-4.7-3.1-7-4.9c-1.9-1.6,1.6-2.3,2.8-1.7c2,0.8,2.3-2.1,0.7-2.8c-1.8-0.8-3.3-2-4.9-3.1c-2.9-2.1-6.2-3.7-9.8-4.2
	c-4-0.4-7.8-2.7-9.9-6.2C113.1,58.1,112.1,55.9,111.2,53.7L111.2,53.7z M98,76.3c2.1,0.1,1.8,3.8-0.3,3.5
	C95.7,79.7,95.9,75.9,98,76.3z M117.6,78.3c2-0.4,2.4,3.3,0.4,3.5C115.9,82.1,115.1,78,117.6,78.3z M111.8,78.8c2,0.4,1.7,4-0.4,4
	c-1.5,0.3-3.1,1.4-4.7,0.6c-1.2-1.3,0.6-3.3,1.9-3.7C109.8,79.5,110.8,79,111.8,78.8L111.8,78.8z M125,78.8c2,0.7,1.3,4.2-0.8,4.2
	c-2,0.3-2.9-3-1-3.8C123.7,78.9,124.4,78.7,125,78.8L125,78.8z M102.8,82.7c1.4,1.4,0.6,4-1.2,4.7c-1.3,0.7-3,2.4-4.4,1
	c-0.8-1.7,1.1-3,2.3-3.9C100.4,83.7,101.5,83,102.8,82.7L102.8,82.7z M119.3,90.4c2.1,1,1,4.7-1.3,4.5c-1.9-0.5-1.6-3.7,0.3-3.9
	C118.7,90.8,119,90.6,119.3,90.4z M112.7,90.8c1.9,0.9,0.5,4.1-1.5,3.7c-2-0.2-2-3.8,0.2-3.5C111.9,91,112.3,90.9,112.7,90.8z
	 M126.9,92.6c2.1-0.7,4.7,1.5,4,3.8c-0.9,1.7-3.3,1.9-5,1.3c-1.9-0.1-3.2-3-1.5-4.2C125.2,92.9,126,92.7,126.9,92.6z M95.5,93.2
	c1.8-1,3.6,1.9,2.1,3.2c-1,1.5-3.5,2-4.7,0.4C92.1,95.2,93.6,92.6,95.5,93.2L95.5,93.2z M87.4,94.6c2,0.3,3.3,2.1,4,3.8
	c0.2,2.1-2.9,3.3-4.3,1.7c-1.5-1-2.9-2.9-2.1-4.7C85.6,94.6,86.6,94.3,87.4,94.6L87.4,94.6z M135.9,102.1c2.2-0.6,3.7,2.9,1.9,4.1
	c-1.7,1.5-5-0.5-4.1-2.7C134.1,102.8,135,102.2,135.9,102.1L135.9,102.1z M108.4,106.1c1.8,0.2,1.2,3.4-0.5,3.3
	C106.1,109,106.6,105.9,108.4,106.1z M99.2,107.8c1.5-1,3.4,1.5,2.2,2.7C99.9,111.5,98,109,99.2,107.8z M113.8,108.1
	c1.7,1,2.7,3,2.9,4.9c-0.8,1.8-4,1.4-4.4-0.6C111.8,110.9,112.4,108.9,113.8,108.1L113.8,108.1z M118.9,111.1
	c2.2-0.6,1.4,4.1-0.4,2.5C117.9,112.8,118.2,111.6,118.9,111.1L118.9,111.1z M86.9,114.3c1.5-0.4,3.6,0,4,1.7
	c0.2,1.6-1.6,2.4-2.8,2.8c-2,0.6-4,1.7-6.2,1.5c-1.6-0.9-2.2-2.9-2.8-4.5c1.6-1.5,3.9-1.1,5.9-1.4C85.5,114.3,86.2,114.3,86.9,114.3
	L86.9,114.3z M136.6,121.6c1.9-0.9,3.9,2,2.3,3.4c-2,2.2-5.7,2.7-8.1,0.8c-0.3-2,1.7-3.4,3.5-3.7
	C135.1,121.8,135.8,121.5,136.6,121.6L136.6,121.6z M147.1,123.8c2.1-0.4,3.8,2.7,2.3,4.2c-1.4,2.2-4.9,2.7-6.8,1
	c-0.8-1.8,0.8-3.7,2.4-4.2C145.7,124.5,146.4,124.1,147.1,123.8L147.1,123.8z M94.3,127c2-0.2,3.8,1.8,3.5,3.7
	c1.4,1.4-1.1,4-2.5,2.6c-1.2-1.5-1.2-3.6-1.7-5.4C93.6,127.5,93.9,127,94.3,127L94.3,127z M109.4,128.2c2-0.9,4.7,1.6,3.6,3.6
	c-0.8,1.7-3.9,1.1-3.8-0.8C109.2,130,109.1,129.1,109.4,128.2L109.4,128.2z M102.1,129.5c2-0.5,3.9,2.2,2.8,3.9
	C102.8,133.6,101.8,131.2,102.1,129.5z"/>
</svg>
